<?xml version="1.0" encoding="UTF-8" standalone="no"?>
<!DOCTYPE svg PUBLIC "-//W3C//DTD SVG 1.1//EN"
 "http://www.w3.org/Graphics/SVG/1.1/DTD/svg11.dtd">
<!-- Generated by graphviz version 2.38.0 (20140413.2041)
 -->
<!-- Title: G Pages: 1 -->
<svg width="526pt" height="352pt"
 viewBox="0.00 0.00 526.00 352.00" xmlns="http://www.w3.org/2000/svg" xmlns:xlink="http://www.w3.org/1999/xlink">
<g id="graph0" class="graph" transform="scale(1 1) rotate(0) translate(4 348)">
<title>G</title>
<polygon fill="white" stroke="none" points="-4,4 -4,-348 522,-348 522,4 -4,4"/>
<g id="clust1" class="cluster"><title>cluster_0</title>
<path fill="none" stroke="black" d="M20,-50C20,-50 123,-50 123,-50 129,-50 135,-56 135,-62 135,-62 135,-165 135,-165 135,-171 129,-177 123,-177 123,-177 20,-177 20,-177 14,-177 8,-171 8,-165 8,-165 8,-62 8,-62 8,-56 14,-50 20,-50"/>
<text text-anchor="middle" x="71.5" y="-163.4" font-family="Arial" font-size="12.00">Master Nodes</text>
</g>
<g id="clust3" class="cluster"><title>cluster_2</title>
<path fill="none" stroke="black" d="M254,-263C254,-263 498,-263 498,-263 504,-263 510,-269 510,-275 510,-275 510,-324 510,-324 510,-330 504,-336 498,-336 498,-336 254,-336 254,-336 248,-336 242,-330 242,-324 242,-324 242,-275 242,-275 242,-269 248,-263 254,-263"/>
<text text-anchor="middle" x="376" y="-322.4" font-family="Arial" font-size="12.00">Workers</text>
</g>
<g id="clust4" class="cluster"><title>cluster_3</title>
<path fill="none" stroke="black" d="M167,-133C167,-133 282,-133 282,-133 288,-133 294,-139 294,-145 294,-145 294,-210 294,-210 294,-216 288,-222 282,-222 282,-222 167,-222 167,-222 161,-222 155,-216 155,-210 155,-210 155,-145 155,-145 155,-139 161,-133 167,-133"/>
<text text-anchor="middle" x="224.5" y="-208.4" font-family="Arial" font-size="12.00">Storage Nodes</text>
</g>
<!-- M1 -->
<g id="node1" class="node"><title>M1</title>
<polygon fill="none" stroke="black" points="52,-148 16,-148 16,-112 52,-112 52,-148"/>
<text text-anchor="start" x="27" y="-128.5" font-family="Arial" font-size="10.00">M</text>
<text text-anchor="start" x="36" y="-128.5" font-family="Arial" baseline-shift="sub" font-size="10.00">1</text>
</g>
<!-- M2 -->
<g id="node2" class="node"><title>M2</title>
<polygon fill="none" stroke="black" points="127,-94 91,-94 91,-58 127,-58 127,-94"/>
<text text-anchor="start" x="102" y="-74.5" font-family="Arial" font-size="10.00">M</text>
<text text-anchor="start" x="111" y="-74.5" font-family="Arial" baseline-shift="sub" font-size="10.00">2</text>
</g>
<!-- M1&#45;&gt;M2 -->
<g id="edge1" class="edge"><title>M1&#45;&gt;M2</title>
<path fill="none" stroke="black" d="M43,-111.718C43,-96.0522 43,-76 43,-76 43,-76 71.4238,-76 90.9652,-76"/>
</g>
<!-- M3 -->
<g id="node3" class="node"><title>M3</title>
<polygon fill="none" stroke="black" points="127,-148 91,-148 91,-112 127,-112 127,-148"/>
<text text-anchor="start" x="102" y="-128.5" font-family="Arial" font-size="10.00">M</text>
<text text-anchor="start" x="111" y="-128.5" font-family="Arial" baseline-shift="sub" font-size="10.00">3</text>
</g>
<!-- M1&#45;&gt;M3 -->
<g id="edge2" class="edge"><title>M1&#45;&gt;M3</title>
<path fill="none" stroke="black" d="M52.1554,-130C63.8606,-130 79.0284,-130 90.7518,-130"/>
</g>
<!-- W1 -->
<g id="node5" class="node"><title>W1</title>
<polygon fill="none" stroke="black" points="286,-307 250,-307 250,-271 286,-271 286,-307"/>
<text text-anchor="start" x="260.5" y="-287.5" font-family="Arial" font-size="10.00">W</text>
<text text-anchor="start" x="270.5" y="-287.5" font-family="Arial" baseline-shift="sub" font-size="10.00">1</text>
</g>
<!-- M1&#45;&gt;W1 -->
<g id="edge8" class="edge"><title>M1&#45;&gt;W1</title>
<path fill="none" stroke="black" d="M25,-176.738C25,-223.647 25,-289 25,-289 25,-289 239.736,-289 239.736,-289"/>
<polygon fill="black" stroke="black" points="232,-292.5 242,-289 232,-285.5 232,-292.5"/>
</g>
<!-- D1 -->
<g id="node8" class="node"><title>D1</title>
<polygon fill="none" stroke="black" points="214,-192.5 163,-192.5 163,-141.5 214,-141.5 214,-192.5"/>
<text text-anchor="middle" x="188.5" y="-164.5" font-family="Arial" font-size="10.00">Primary</text>
</g>
<!-- M1&#45;&gt;D1 -->
<g id="edge9" class="edge"><title>M1&#45;&gt;D1</title>
<path fill="none" stroke="black" d="M134.916,-170.25C145.781,-170.25 152.987,-170.25 152.987,-170.25"/>
<polygon fill="black" stroke="black" points="145,-173.75 155,-170.25 145,-166.75 145,-173.75"/>
</g>
<!-- M1&#45;&gt;D1 -->
<!-- D2 -->
<g id="node9" class="node"><title>D2</title>
<polygon fill="none" stroke="black" points="286,-177 250,-177 250,-141 286,-141 286,-177"/>
<text text-anchor="middle" x="268" y="-156.5" font-family="Arial" font-size="10.00">Aux</text>
</g>
<!-- M1&#45;&gt;D2 -->
<!-- M2&#45;&gt;M3 -->
<g id="edge3" class="edge"><title>M2&#45;&gt;M3</title>
<path fill="none" stroke="black" d="M109,-94.2819C109,-99.9118 109,-106.108 109,-111.737"/>
</g>
<!-- M2&#45;&gt;D1 -->
<!-- M2&#45;&gt;D2 -->
<!-- M3&#45;&gt;D1 -->
<!-- M3&#45;&gt;D2 -->
<!-- W3 -->
<g id="node4" class="node"><title>W3</title>
<polygon fill="none" stroke="black" points="430,-307 394,-307 394,-271 430,-271 430,-307"/>
<text text-anchor="middle" x="412" y="-286.5" font-family="Arial" font-size="10.00">...</text>
</g>
<!-- W4 -->
<g id="node7" class="node"><title>W4</title>
<polygon fill="none" stroke="black" points="502,-307 466,-307 466,-271 502,-271 502,-307"/>
<text text-anchor="start" x="476.5" y="-287.5" font-family="Arial" font-size="10.00">W</text>
<text text-anchor="start" x="486.5" y="-287.5" font-family="Arial" baseline-shift="sub" font-size="10.00">n</text>
</g>
<!-- W3&#45;&gt;W4 -->
<!-- W2 -->
<g id="node6" class="node"><title>W2</title>
<polygon fill="none" stroke="black" points="358,-307 322,-307 322,-271 358,-271 358,-307"/>
<text text-anchor="start" x="332.5" y="-287.5" font-family="Arial" font-size="10.00">W</text>
<text text-anchor="start" x="342.5" y="-287.5" font-family="Arial" baseline-shift="sub" font-size="10.00">2</text>
</g>
<!-- W1&#45;&gt;W2 -->
<!-- W2&#45;&gt;W3 -->
<!-- D1&#45;&gt;W1 -->
<g id="edge10" class="edge"><title>D1&#45;&gt;W1</title>
<path fill="none" stroke="black" d="M214.092,-188.625C237.332,-188.625 268,-188.625 268,-188.625 268,-188.625 268,-260.59 268,-260.59"/>
<polygon fill="black" stroke="black" points="264.5,-260.59 268,-270.59 271.5,-260.59 264.5,-260.59"/>
</g>
<!-- D1&#45;&gt;W2 -->
<g id="edge11" class="edge"><title>D1&#45;&gt;W2</title>
<path fill="none" stroke="black" d="M214.2,-184.75C257.424,-184.75 340,-184.75 340,-184.75 340,-184.75 340,-260.841 340,-260.841"/>
<polygon fill="black" stroke="black" points="336.5,-260.841 340,-270.841 343.5,-260.841 336.5,-260.841"/>
</g>
<!-- D1&#45;&gt;W4 -->
<g id="edge12" class="edge"><title>D1&#45;&gt;W4</title>
<path fill="none" stroke="black" d="M214.207,-180.875C286.1,-180.875 484,-180.875 484,-180.875 484,-180.875 484,-260.658 484,-260.658"/>
<polygon fill="black" stroke="black" points="480.5,-260.658 484,-270.658 487.5,-260.658 480.5,-260.658"/>
</g>
<!-- D1&#45;&gt;D2 -->
<g id="edge7" class="edge"><title>D1&#45;&gt;D2</title>
<path fill="none" stroke="black" d="M214.092,-159.25C214.092,-159.25 239.761,-159.25 239.761,-159.25"/>
<polygon fill="black" stroke="black" points="239.761,-162.75 249.761,-159.25 239.761,-155.75 239.761,-162.75"/>
</g>
<!-- C1 -->
<g id="node10" class="node"><title>C1</title>
<polygon fill="none" stroke="black" points="55,-42 13,-42 13,-0 55,-0 55,-42"/>
<text text-anchor="middle" x="34" y="-18.5" font-family="Arial" font-size="10.00">Client</text>
</g>
<!-- C1&#45;&gt;M1 -->
<g id="edge19" class="edge"><title>C1&#45;&gt;M1</title>
<path fill="none" stroke="black" d="M34,-42.0163C34,-42.0163 34,-42.0677 34,-42.1676"/>
<polygon fill="black" stroke="black" points="30.5001,-40.3483 34,-50.3484 37.5001,-40.3484 30.5001,-40.3483"/>
</g>
<!-- C1&#45;&gt;D1 -->
<g id="edge20" class="edge"><title>C1&#45;&gt;D1</title>
<path fill="none" stroke="black" d="M55.3094,-21C99.4925,-21 197,-21 197,-21 197,-21 197,-131.234 197,-131.234"/>
<polygon fill="black" stroke="black" points="193.501,-123 197,-133 200.501,-123 193.501,-123"/>
</g>
</g>
</svg>
