<?xml version="1.0" encoding="UTF-8" standalone="no"?>
<!DOCTYPE svg PUBLIC "-//W3C//DTD SVG 1.1//EN"
 "http://www.w3.org/Graphics/SVG/1.1/DTD/svg11.dtd">
<!-- Generated by graphviz version 2.38.0 (20140413.2041)
 -->
<!-- Title: G Pages: 1 -->
<svg width="387pt" height="557pt"
 viewBox="0.00 0.00 387.00 557.00" xmlns="http://www.w3.org/2000/svg" xmlns:xlink="http://www.w3.org/1999/xlink">
<g id="graph0" class="graph" transform="scale(1 1) rotate(0) translate(4 553)">
<title>G</title>
<polygon fill="white" stroke="none" points="-4,4 -4,-553 383,-553 383,4 -4,4"/>
<g id="clust1" class="cluster"><title>cluster_0</title>
<path fill="none" stroke="black" d="M20,-393C20,-393 102,-393 102,-393 108,-393 114,-399 114,-405 114,-405 114,-529 114,-529 114,-535 108,-541 102,-541 102,-541 20,-541 20,-541 14,-541 8,-535 8,-529 8,-529 8,-405 8,-405 8,-399 14,-393 20,-393"/>
<text text-anchor="middle" x="61" y="-527.4" font-family="Arial" font-size="12.00">Master Nodes</text>
</g>
<g id="clust3" class="cluster"><title>cluster_1</title>
<path fill="none" stroke="black" d="M283,-224C283,-224 359,-224 359,-224 365,-224 371,-230 371,-236 371,-236 371,-373 371,-373 371,-379 365,-385 359,-385 359,-385 283,-385 283,-385 277,-385 271,-379 271,-373 271,-373 271,-236 271,-236 271,-230 277,-224 283,-224"/>
<text text-anchor="middle" x="321" y="-371.4" font-family="Arial" font-size="12.00">Load Balancers</text>
</g>
<g id="clust4" class="cluster"><title>cluster_2</title>
<path fill="none" stroke="black" d="M197,-8C197,-8 234,-8 234,-8 240,-8 246,-14 246,-20 246,-20 246,-285 246,-285 246,-291 240,-297 234,-297 234,-297 197,-297 197,-297 191,-297 185,-291 185,-285 185,-285 185,-20 185,-20 185,-14 191,-8 197,-8"/>
<text text-anchor="middle" x="215.5" y="-283.4" font-family="Arial" font-size="12.00">Workers</text>
</g>
<g id="clust5" class="cluster"><title>cluster_3</title>
<path fill="none" stroke="black" d="M71,-224C71,-224 144,-224 144,-224 150,-224 156,-230 156,-236 156,-236 156,-373 156,-373 156,-379 150,-385 144,-385 144,-385 71,-385 71,-385 65,-385 59,-379 59,-373 59,-373 59,-236 59,-236 59,-230 65,-224 71,-224"/>
<text text-anchor="middle" x="107.5" y="-371.4" font-family="Arial" font-size="12.00">Storage Nodes</text>
</g>
<!-- M1 -->
<g id="node1" class="node"><title>M1</title>
<polygon fill="none" stroke="black" points="106,-512 70,-512 70,-476 106,-476 106,-512"/>
<text text-anchor="start" x="81" y="-492.5" font-family="Arial" font-size="10.00">M</text>
<text text-anchor="start" x="90" y="-492.5" font-family="Arial" baseline-shift="sub" font-size="10.00">1</text>
</g>
<!-- M2 -->
<g id="node2" class="node"><title>M2</title>
<polygon fill="none" stroke="black" points="106,-437 70,-437 70,-401 106,-401 106,-437"/>
<text text-anchor="start" x="81" y="-417.5" font-family="Arial" font-size="10.00">M</text>
<text text-anchor="start" x="90" y="-417.5" font-family="Arial" baseline-shift="sub" font-size="10.00">2</text>
</g>
<!-- M1&#45;&gt;M2 -->
<g id="edge1" class="edge"><title>M1&#45;&gt;M2</title>
<path fill="none" stroke="black" d="M82,-475.845C82,-464.139 82,-448.972 82,-437.248"/>
</g>
<!-- M3 -->
<g id="node3" class="node"><title>M3</title>
<polygon fill="none" stroke="black" points="52,-437 16,-437 16,-401 52,-401 52,-437"/>
<text text-anchor="start" x="27" y="-417.5" font-family="Arial" font-size="10.00">M</text>
<text text-anchor="start" x="36" y="-417.5" font-family="Arial" baseline-shift="sub" font-size="10.00">3</text>
</g>
<!-- M1&#45;&gt;M3 -->
<g id="edge2" class="edge"><title>M1&#45;&gt;M3</title>
<path fill="none" stroke="black" d="M69.7181,-500C54.0522,-500 34,-500 34,-500 34,-500 34,-461.279 34,-437.38"/>
</g>
<!-- B1 -->
<g id="node4" class="node"><title>B1</title>
<polygon fill="none" stroke="black" points="330.5,-356 279.5,-356 279.5,-305 330.5,-305 330.5,-356"/>
<text text-anchor="middle" x="305" y="-328" font-family="Arial" font-size="10.00">Primary</text>
</g>
<!-- M1&#45;&gt;B1 -->
<g id="edge9" class="edge"><title>M1&#45;&gt;B1</title>
<path fill="none" stroke="black" d="M113.85,-455C166.376,-455 305,-455 305,-455 305,-455 305,-366.296 305,-366.296"/>
<polygon fill="black" stroke="black" points="308.5,-366.296 305,-356.296 301.5,-366.297 308.5,-366.296"/>
</g>
<!-- D1 -->
<g id="node10" class="node"><title>D1</title>
<polygon fill="none" stroke="black" points="147.5,-356 96.5,-356 96.5,-305 147.5,-305 147.5,-356"/>
<text text-anchor="middle" x="122" y="-328" font-family="Arial" font-size="10.00">Primary</text>
</g>
<!-- M1&#45;&gt;D1 -->
<g id="edge10" class="edge"><title>M1&#45;&gt;D1</title>
<path fill="none" stroke="black" d="M113.551,-485C122.333,-485 130,-485 130,-485 130,-485 130,-430.031 130,-394.816"/>
<polygon fill="black" stroke="black" points="133.5,-394.604 130,-384.604 126.5,-394.604 133.5,-394.604"/>
</g>
<!-- M1&#45;&gt;D1 -->
<!-- D2 -->
<g id="node11" class="node"><title>D2</title>
<polygon fill="none" stroke="black" points="103,-268 67,-268 67,-232 103,-232 103,-268"/>
<text text-anchor="middle" x="85" y="-247.5" font-family="Arial" font-size="10.00">Aux</text>
</g>
<!-- M1&#45;&gt;D2 -->
<!-- M2&#45;&gt;M3 -->
<g id="edge3" class="edge"><title>M2&#45;&gt;M3</title>
<path fill="none" stroke="black" d="M69.7181,-419C64.0882,-419 57.8917,-419 52.2631,-419"/>
</g>
<!-- M2&#45;&gt;D1 -->
<!-- M2&#45;&gt;D2 -->
<!-- M3&#45;&gt;D1 -->
<!-- M3&#45;&gt;D2 -->
<!-- B2 -->
<g id="node5" class="node"><title>B2</title>
<polygon fill="none" stroke="black" points="363,-268 327,-268 327,-232 363,-232 363,-268"/>
<text text-anchor="middle" x="345" y="-247.5" font-family="Arial" font-size="10.00">Aux</text>
</g>
<!-- B1&#45;&gt;B2 -->
<g id="edge4" class="edge"><title>B1&#45;&gt;B2</title>
<path fill="none" stroke="black" d="M317.5,-304.547C317.5,-279.068 317.5,-244 317.5,-244 317.5,-244 318.431,-244 318.431,-244"/>
<polygon fill="black" stroke="black" points="316.81,-247.5 326.81,-244 316.81,-240.5 316.81,-247.5"/>
</g>
<!-- W1 -->
<g id="node7" class="node"><title>W1</title>
<polygon fill="none" stroke="black" points="233,-268 197,-268 197,-232 233,-232 233,-268"/>
<text text-anchor="start" x="207.5" y="-248.5" font-family="Arial" font-size="10.00">W</text>
<text text-anchor="start" x="217.5" y="-248.5" font-family="Arial" baseline-shift="sub" font-size="10.00">1</text>
</g>
<!-- B1&#45;&gt;W1 -->
<g id="edge11" class="edge"><title>B1&#45;&gt;W1</title>
<path fill="none" stroke="black" d="M289,-304.861C289,-283.311 289,-256 289,-256 289,-256 243.292,-256 243.292,-256"/>
<polygon fill="black" stroke="black" points="243.292,-252.5 233.292,-256 243.292,-259.5 243.292,-252.5"/>
</g>
<!-- W2 -->
<g id="node8" class="node"><title>W2</title>
<polygon fill="none" stroke="black" points="233,-196 197,-196 197,-160 233,-160 233,-196"/>
<text text-anchor="start" x="207.5" y="-176.5" font-family="Arial" font-size="10.00">W</text>
<text text-anchor="start" x="217.5" y="-176.5" font-family="Arial" baseline-shift="sub" font-size="10.00">2</text>
</g>
<!-- B1&#45;&gt;W2 -->
<g id="edge12" class="edge"><title>B1&#45;&gt;W2</title>
<path fill="none" stroke="black" d="M298.5,-304.975C298.5,-261.562 298.5,-178 298.5,-178 298.5,-178 243.118,-178 243.118,-178"/>
<polygon fill="black" stroke="black" points="243.118,-174.5 233.118,-178 243.118,-181.5 243.118,-174.5"/>
</g>
<!-- W4 -->
<g id="node9" class="node"><title>W4</title>
<polygon fill="none" stroke="black" points="233,-52 197,-52 197,-16 233,-16 233,-52"/>
<text text-anchor="start" x="207.5" y="-32.5" font-family="Arial" font-size="10.00">W</text>
<text text-anchor="start" x="217.5" y="-32.5" font-family="Arial" baseline-shift="sub" font-size="10.00">n</text>
</g>
<!-- B1&#45;&gt;W4 -->
<g id="edge13" class="edge"><title>B1&#45;&gt;W4</title>
<path fill="none" stroke="black" d="M308,-304.964C308,-233.044 308,-34 308,-34 308,-34 243.374,-34 243.374,-34"/>
<polygon fill="black" stroke="black" points="243.374,-30.5001 233.374,-34 243.374,-37.5001 243.374,-30.5001"/>
</g>
<!-- W3 -->
<g id="node6" class="node"><title>W3</title>
<polygon fill="none" stroke="black" points="233,-124 197,-124 197,-88 233,-88 233,-124"/>
<text text-anchor="middle" x="215" y="-103.5" font-family="Arial" font-size="10.00">...</text>
</g>
<!-- W3&#45;&gt;W4 -->
<!-- W1&#45;&gt;W2 -->
<!-- W2&#45;&gt;W3 -->
<!-- D1&#45;&gt;W1 -->
<g id="edge14" class="edge"><title>D1&#45;&gt;W1</title>
<path fill="none" stroke="black" d="M136.375,-304.586C136.375,-281.053 136.375,-250 136.375,-250 136.375,-250 186.764,-250 186.764,-250"/>
<polygon fill="black" stroke="black" points="186.764,-253.5 196.764,-250 186.764,-246.5 186.764,-253.5"/>
</g>
<!-- D1&#45;&gt;W2 -->
<g id="edge15" class="edge"><title>D1&#45;&gt;W2</title>
<path fill="none" stroke="black" d="M125.25,-304.975C125.25,-261.562 125.25,-178 125.25,-178 125.25,-178 186.838,-178 186.838,-178"/>
<polygon fill="black" stroke="black" points="186.838,-181.5 196.838,-178 186.838,-174.5 186.838,-181.5"/>
</g>
<!-- D1&#45;&gt;W4 -->
<g id="edge16" class="edge"><title>D1&#45;&gt;W4</title>
<path fill="none" stroke="black" d="M114.125,-304.964C114.125,-233.044 114.125,-34 114.125,-34 114.125,-34 186.966,-34 186.966,-34"/>
<polygon fill="black" stroke="black" points="186.966,-37.5001 196.966,-34 186.966,-30.5001 186.966,-37.5001"/>
</g>
<!-- D1&#45;&gt;D2 -->
<g id="edge8" class="edge"><title>D1&#45;&gt;D2</title>
<path fill="none" stroke="black" d="M96.3304,-322C91.3632,-322 87.6667,-322 87.6667,-322 87.6667,-322 87.6667,-278.169 87.6667,-278.169"/>
<polygon fill="black" stroke="black" points="91.1668,-278.169 87.6667,-268.169 84.1668,-278.169 91.1668,-278.169"/>
</g>
<!-- C1 -->
<g id="node12" class="node"><title>C1</title>
<polygon fill="none" stroke="black" points="184,-515 142,-515 142,-473 184,-473 184,-515"/>
<text text-anchor="middle" x="163" y="-491.5" font-family="Arial" font-size="10.00">Client</text>
</g>
<!-- C1&#45;&gt;M1 -->
<g id="edge23" class="edge"><title>C1&#45;&gt;M1</title>
<path fill="none" stroke="black" d="M141.709,-503C141.709,-503 116.042,-503 116.042,-503"/>
<polygon fill="black" stroke="black" points="124,-499.5 114,-503 124,-506.5 124,-499.5"/>
</g>
</g>
</svg>
